700 696 1 0         
16 Autodesk AutoCAD 20 ASM 223.0.1.1930 OSX 24 Sun Feb 25 14:09:31 2018 
1 9.999999999999999547e-07 1.000000000000000036e-10 
body $-1 -1 $-1 $1 $-1 $2 #
lump $-1 -1 $-1 $-1 $3 $0 #
transform $-1 -1 2.220446049250313081e-16 1 0 -1 2.220446049250313081e-16 0 0 -0 1 0 0 0 1 rotate no_reflect no_shear #
shell $-1 -1 $-1 $-1 $-1 $4 $-1 $1 #
face $5 -1 $-1 $6 $7 $3 $-1 $8 reversed single #
color-adesk-attrib $-1 -1 $-1 $-1 $4 256 #
face $9 -1 $-1 $10 $11 $3 $-1 $12 reversed single #
loop $-1 -1 $-1 $13 $14 $4 #
cone-surface $-1 -1 $-1 61.00000000000000711 -12.49999999999998579 0 0 0 1 3.663735981263016386e-16 -1.649999999999999911 0 1 I I 0 1 1.649999999999999911 forward I I I I #
color-adesk-attrib $-1 -1 $-1 $-1 $6 256 #
face $15 -1 $-1 $16 $17 $3 $-1 $18 reversed single #
loop $-1 -1 $-1 $19 $20 $6 #
cone-surface $-1 -1 $-1 61 12.50000000000001421 0 0 0 1 3.663735981263016386e-16 -1.649999999999999911 0 1 I I 0 1 1.649999999999999911 forward I I I I #
loop $-1 -1 $-1 $-1 $21 $4 #
coedge $-1 -1 $-1 $14 $14 $22 $23 reversed $7 $-1 #
color-adesk-attrib $-1 -1 $-1 $-1 $10 256 #
face $24 -1 $-1 $25 $26 $3 $-1 $27 reversed single #
loop $-1 -1 $-1 $28 $29 $10 #
cone-surface $-1 -1 $-1 75 25.00000000000001776 0 0 0 1 3.663735981263016386e-16 -1.649999999999999911 0 1 I I 0 1 1.649999999999999911 forward I I I I #
loop $-1 -1 $-1 $-1 $30 $6 #
coedge $-1 -1 $-1 $20 $20 $31 $32 reversed $11 $-1 #
coedge $-1 -1 $-1 $21 $21 $33 $34 reversed $13 $-1 #
coedge $-1 -1 $-1 $22 $22 $14 $23 forward $35 $-1 #
edge $36 -1 $-1 $37 -3.141592653589793116 $37 3.141592653589793116 $22 $38 forward @7 unknown #
color-adesk-attrib $-1 -1 $-1 $-1 $16 256 #
face $39 -1 $-1 $40 $41 $3 $-1 $42 forward single #
loop $-1 -1 $-1 $43 $44 $16 #
cone-surface $-1 -1 $-1 75 -24.99999999999998579 0 0 0 1 3.663735981263016386e-16 -1.649999999999999911 0 1 I I 0 1 1.649999999999999911 forward I I I I #
loop $-1 -1 $-1 $-1 $45 $10 #
coedge $-1 -1 $-1 $29 $29 $46 $47 reversed $17 $-1 #
coedge $-1 -1 $-1 $30 $30 $48 $49 reversed $19 $-1 #
coedge $-1 -1 $-1 $31 $31 $20 $32 forward $50 $-1 #
edge $51 -1 $-1 $52 -3.141592653589793116 $52 3.141592653589793116 $31 $53 forward @7 unknown #
coedge $-1 -1 $-1 $33 $33 $21 $34 forward $54 $-1 #
edge $55 -1 $-1 $56 -3.141592653589793116 $56 3.141592653589793116 $33 $57 forward @7 unknown #
loop $-1 -1 $-1 $50 $22 $58 #
color-adesk-attrib $-1 -1 $-1 $-1 $23 256 #
vertex $-1 -1 $-1 $23 $59 #
ellipse-curve $-1 -1 $-1 61.00000000000000711 -12.49999999999998579 -2.25 0 0 1 3.663735981263016386e-16 -1.649999999999999911 0 1 I I #
color-adesk-attrib $-1 -1 $-1 $-1 $25 256 #
face $60 -1 $-1 $61 $62 $3 $-1 $63 forward single #
loop $-1 -1 $-1 $64 $65 $25 #
plane-surface $-1 -1 $-1 54.99999999999999289 30.00000000000001066 -2.25 -1 -2.220446049250313081e-16 0 2.220446049250313081e-16 -1 0 forward_v I I I I #
loop $-1 -1 $-1 $-1 $66 $16 #
coedge $-1 -1 $-1 $44 $44 $67 $68 reversed $26 $-1 #
coedge $-1 -1 $-1 $45 $45 $69 $70 reversed $28 $-1 #
coedge $-1 -1 $-1 $46 $46 $29 $47 forward $71 $-1 #
edge $72 -1 $-1 $73 -3.141592653589793116 $73 3.141592653589793116 $46 $74 forward @7 unknown #
coedge $-1 -1 $-1 $48 $48 $30 $49 forward $75 $-1 #
edge $76 -1 $-1 $77 -3.141592653589793116 $77 3.141592653589793116 $48 $78 forward @7 unknown #
loop $-1 -1 $-1 $71 $31 $58 #
color-adesk-attrib $-1 -1 $-1 $-1 $32 256 #
vertex $-1 -1 $-1 $32 $79 #
ellipse-curve $-1 -1 $-1 61 12.50000000000001421 -2.25 0 0 1 3.663735981263016386e-16 -1.649999999999999911 0 1 I I #
loop $-1 -1 $-1 $75 $33 $80 #
color-adesk-attrib $-1 -1 $-1 $-1 $34 256 #
vertex $-1 -1 $-1 $34 $81 #
ellipse-curve $-1 -1 $-1 61.00000000000000711 -12.49999999999998579 2.75 -0 -0 -1 3.663735981263016386e-16 -1.649999999999999911 0 1 I I #
face $82 -1 $-1 $83 $35 $3 $-1 $84 reversed single #
point $-1 -1 $-1 61.00000000000000711 -10.84999999999998543 -2.25 #
color-adesk-attrib $-1 -1 $-1 $-1 $40 256 #
face $85 -1 $-1 $58 $86 $3 $-1 $87 forward single #
loop $-1 -1 $-1 $-1 $88 $40 #
cone-surface $-1 -1 $-1 113 -27.99999999999997513 -2.25 0 0 1 1.414213562373095145 -1.414213562373094701 0 1 I I 0 1 1.999999999999999778 forward I I I I #
loop $-1 -1 $-1 $-1 $89 $25 #
coedge $-1 -1 $-1 $90 $91 $92 $93 reversed $41 $-1 #
coedge $-1 -1 $-1 $66 $66 $94 $95 reversed $43 $-1 #
coedge $-1 -1 $-1 $67 $67 $44 $68 forward $96 $-1 #
edge $97 -1 $-1 $98 -3.141592653589793116 $98 3.141592653589793116 $67 $99 forward @7 unknown #
coedge $-1 -1 $-1 $69 $69 $45 $70 forward $100 $-1 #
edge $101 -1 $-1 $102 -3.141592653589793116 $102 3.141592653589793116 $69 $103 forward @7 unknown #
loop $-1 -1 $-1 $96 $46 $58 #
color-adesk-attrib $-1 -1 $-1 $-1 $47 256 #
vertex $-1 -1 $-1 $47 $104 #
ellipse-curve $-1 -1 $-1 75 25.00000000000001776 -2.25 0 0 1 3.663735981263016386e-16 -1.649999999999999911 0 1 I I #
loop $-1 -1 $-1 $100 $48 $80 #
color-adesk-attrib $-1 -1 $-1 $-1 $49 256 #
vertex $-1 -1 $-1 $49 $105 #
ellipse-curve $-1 -1 $-1 61 12.50000000000001421 2.75 -0 -0 -1 3.663735981263016386e-16 -1.649999999999999911 0 1 I I #
point $-1 -1 $-1 61 14.15000000000001457 -2.25 #
face $106 -1 $-1 $107 $54 $3 $-1 $108 forward single #
point $-1 -1 $-1 61.00000000000000711 -10.84999999999998543 2.75 #
color-adesk-attrib $-1 -1 $-1 $-1 $58 256 #
face $109 -1 $-1 $110 $111 $3 $-1 $112 forward single #
plane-surface $-1 -1 $-1 81.66791044776121566 1.940653276551869312e-14 -2.25 0 0 1 2.220446049250313081e-16 -1 0 forward_v I I I I #
color-adesk-attrib $-1 -1 $-1 $-1 $61 256 #
loop $-1 -1 $-1 $-1 $113 $61 #
plane-surface $-1 -1 $-1 115 -29.99999999999997513 -2.25 1 2.220446049250313081e-16 0 -2.220446049250313081e-16 1 0 forward_v I I I I #
coedge $-1 -1 $-1 $114 $115 $116 $117 forward $62 $-1 #
coedge $-1 -1 $-1 $118 $119 $120 $121 reversed $64 $-1 #
coedge $-1 -1 $-1 $122 $65 $123 $124 forward $41 $-1 #
coedge $-1 -1 $-1 $65 $122 $125 $126 reversed $41 $-1 #
coedge $-1 -1 $-1 $127 $128 $65 $93 forward $129 $-1 #
edge $130 -1 $-1 $131 -35 $132 25 $92 $133 forward @7 unknown #
coedge $-1 -1 $-1 $94 $94 $66 $95 forward $134 $-1 #
edge $135 -1 $-1 $136 -3.141592653589793116 $136 3.141592653589793116 $94 $137 forward @7 unknown #
loop $-1 -1 $-1 $129 $67 $58 #
color-adesk-attrib $-1 -1 $-1 $-1 $68 256 #
vertex $-1 -1 $-1 $68 $138 #
ellipse-curve $-1 -1 $-1 75 -24.99999999999998579 -2.25 0 0 1 3.663735981263016386e-16 -1.649999999999999911 0 1 I I #
loop $-1 -1 $-1 $134 $69 $80 #
color-adesk-attrib $-1 -1 $-1 $-1 $70 256 #
vertex $-1 -1 $-1 $70 $139 #
ellipse-curve $-1 -1 $-1 75 25.00000000000001776 2.75 -0 -0 -1 3.663735981263016386e-16 -1.649999999999999911 0 1 I I #
point $-1 -1 $-1 75 26.65000000000001634 -2.25 #
point $-1 -1 $-1 61 14.15000000000001457 2.75 #
color-adesk-attrib $-1 -1 $-1 $-1 $80 256 #
face $140 -1 $-1 $141 $142 $3 $-1 $143 forward single #
plane-surface $-1 -1 $-1 81.66791044776121566 1.902209733012610108e-14 2.75 0 0 1 2.220446049250313081e-16 -1 0 forward_v I I I I #
color-adesk-attrib $-1 -1 $-1 $-1 $83 256 #
face $144 -1 $-1 $145 $146 $3 $-1 $147 forward single #
loop $-1 -1 $-1 $-1 $148 $83 #
cone-surface $-1 -1 $-1 113 -19.99999999999997513 -2.25 0 0 1 1.414213562373094701 1.414213562373095145 0 1 I I 0 1 1.999999999999999778 forward I I I I #
coedge $-1 -1 $-1 $149 $150 $115 $151 reversed $86 $-1 #
coedge $-1 -1 $-1 $152 $88 $153 $154 forward $62 $-1 #
coedge $-1 -1 $-1 $88 $152 $113 $151 forward $62 $-1 #
coedge $-1 -1 $-1 $155 $156 $88 $117 reversed $157 $-1 #
edge $158 -1 $-1 $159 -0.785398163397448279 $160 0.785398163397448279 $116 $161 forward @7 unknown #
coedge $-1 -1 $-1 $162 $89 $163 $164 forward $64 $-1 #
coedge $-1 -1 $-1 $89 $162 $165 $166 reversed $64 $-1 #
coedge $-1 -1 $-1 $167 $168 $89 $121 forward $169 $-1 #
edge $170 -1 $-1 $171 1.338316993464053084 $172 11.33831699346405308 $120 $173 forward @7 unknown #
coedge $-1 -1 $-1 $91 $90 $174 $175 reversed $41 $-1 #
coedge $-1 -1 $-1 $176 $177 $90 $124 reversed $178 $-1 #
edge $179 -1 $-1 $131 0 $180 5 $90 $181 forward @7 unknown #
coedge $-1 -1 $-1 $182 $183 $91 $126 forward $184 $-1 #
edge $185 -1 $-1 $132 0 $186 5 $91 $187 forward @7 unknown #
coedge $-1 -1 $-1 $188 $92 $183 $189 forward $129 $-1 #
coedge $-1 -1 $-1 $92 $190 $176 $191 forward $129 $-1 #
loop $-1 -1 $-1 $-1 $190 $58 #
color-adesk-attrib $-1 -1 $-1 $-1 $93 256 #
vertex $-1 -1 $-1 $191 $192 #
vertex $-1 -1 $-1 $93 $193 #
straight-curve $-1 -1 $-1 55 5.000000000000012434 -2.25 -2.220446049250313081e-16 1 0 F -35 F 25 #
loop $-1 -1 $-1 $157 $94 $80 #
color-adesk-attrib $-1 -1 $-1 $-1 $95 256 #
vertex $-1 -1 $-1 $95 $194 #
ellipse-curve $-1 -1 $-1 75 -24.99999999999998579 2.75 -0 -0 -1 3.663735981263016386e-16 -1.649999999999999911 0 1 I I #
point $-1 -1 $-1 75 -23.34999999999998721 -2.25 #
point $-1 -1 $-1 75 26.65000000000001634 2.75 #
color-adesk-attrib $-1 -1 $-1 $-1 $107 256 #
face $195 -1 $-1 $196 $169 $3 $-1 $197 reversed single #
loop $-1 -1 $-1 $-1 $198 $107 #
plane-surface $-1 -1 $-1 76.74836601307188744 10.92663398692812393 2 0 0 1 -2.220446049250313081e-16 1 0 reverse_v I I I I #
color-adesk-attrib $-1 -1 $-1 $-1 $110 256 #
face $199 -1 $-1 $200 $201 $3 $-1 $202 forward single #
loop $-1 -1 $-1 $-1 $203 $110 #
plane-surface $-1 -1 $-1 115 -17.99999999999997513 -2.25 -2.220446049250313081e-16 1 0 -1 -2.220446049250313081e-16 -0 forward_v I I I I #
coedge $-1 -1 $-1 $204 $205 $206 $207 forward $111 $-1 #
coedge $-1 -1 $-1 $208 $113 $209 $210 reversed $86 $-1 #
coedge $-1 -1 $-1 $113 $208 $155 $211 reversed $86 $-1 #
edge $212 -1 $-1 $213 0 $159 5 $113 $214 forward @7 tangent #
coedge $-1 -1 $-1 $115 $114 $190 $215 forward $62 $-1 #
coedge $-1 -1 $-1 $177 $176 $114 $154 reversed $178 $-1 #
edge $216 -1 $-1 $160 -5 $217 0 $153 $218 forward @7 tangent #
coedge $-1 -1 $-1 $206 $116 $150 $211 forward $157 $-1 #
coedge $-1 -1 $-1 $116 $174 $177 $219 forward $157 $-1 #
loop $-1 -1 $-1 $-1 $116 $80 #
color-adesk-attrib $-1 -1 $-1 $-1 $117 256 #
vertex $-1 -1 $-1 $211 $220 #
vertex $-1 -1 $-1 $154 $221 #
ellipse-curve $-1 -1 $-1 113 -27.99999999999997513 2.75 0 0 -1 1.414213562373095145 -1.414213562373094701 0 1 I I #
coedge $-1 -1 $-1 $119 $118 $198 $222 reversed $64 $-1 #
coedge $-1 -1 $-1 $223 $224 $118 $164 reversed $225 $-1 #
edge $226 -1 $-1 $171 0 $227 4 $163 $228 forward @7 unknown #
coedge $-1 -1 $-1 $229 $230 $119 $166 forward $231 $-1 #
edge $232 -1 $-1 $172 0 $233 4 $165 $234 forward @7 unknown #
coedge $-1 -1 $-1 $235 $120 $230 $236 reversed $169 $-1 #
coedge $-1 -1 $-1 $120 $235 $223 $237 forward $169 $-1 #
loop $-1 -1 $-1 $-1 $120 $141 #
color-adesk-attrib $-1 -1 $-1 $-1 $121 256 #
vertex $-1 -1 $-1 $237 $238 #
vertex $-1 -1 $-1 $236 $239 #
straight-curve $-1 -1 $-1 55 6.338316993464065519 -2 2.220446049250313081e-16 -1 0 I I #
coedge $-1 -1 $-1 $156 $240 $122 $175 forward $157 $-1 #
edge $241 -1 $-1 $186 -25 $180 35 $122 $242 forward @7 unknown #
coedge $-1 -1 $-1 $153 $123 $128 $191 reversed $178 $-1 #
coedge $-1 -1 $-1 $123 $153 $156 $219 reversed $178 $-1 #
loop $-1 -1 $-1 $-1 $153 $243 #
color-adesk-attrib $-1 -1 $-1 $-1 $124 256 #
vertex $-1 -1 $-1 $124 $244 #
straight-curve $-1 -1 $-1 55.00000000000000711 -29.99999999999998934 -2.25 0 0 1 I I #
coedge $-1 -1 $-1 $245 $125 $240 $246 reversed $184 $-1 #
coedge $-1 -1 $-1 $125 $245 $127 $189 reversed $184 $-1 #
loop $-1 -1 $-1 $-1 $245 $247 #
color-adesk-attrib $-1 -1 $-1 $-1 $126 256 #
vertex $-1 -1 $-1 $126 $248 #
straight-curve $-1 -1 $-1 54.99999999999999289 30.00000000000001066 -2.25 0 0 1 I I #
coedge $-1 -1 $-1 $249 $127 $250 $251 reversed $129 $-1 #
edge $252 -1 $-1 $132 0 $253 58 $127 $254 forward @7 unknown #
coedge $-1 -1 $-1 $128 $209 $152 $215 reversed $129 $-1 #
edge $255 -1 $-1 $217 2 $131 60 $128 $256 forward @7 unknown #
point $-1 -1 $-1 55.00000000000000711 -29.99999999999998934 -2.25 #
point $-1 -1 $-1 54.99999999999999289 30.00000000000001066 -2.25 #
point $-1 -1 $-1 75 -23.34999999999998721 2.75 #
color-adesk-attrib $-1 -1 $-1 $-1 $141 256 #
face $257 -1 $-1 $258 $259 $3 $-1 $260 forward single #
plane-surface $-1 -1 $-1 76.74836601307188744 10.92663398692812393 -2 0 0 1 -2.220446049250313081e-16 1 0 reverse_v I I I I #
coedge $-1 -1 $-1 $261 $262 $162 $222 forward $142 $-1 #
color-adesk-attrib $-1 -1 $-1 $-1 $145 256 #
face $263 -1 $-1 $264 $265 $3 $-1 $266 forward single #
loop $-1 -1 $-1 $-1 $267 $145 #
cone-surface $-1 -1 $-1 113 20.00000000000002487 -2.25 0 0 1 1.414213562373095145 -1.414213562373094701 0 1 I I 0 1 1.999999999999999778 forward I I I I #
coedge $-1 -1 $-1 $268 $269 $205 $270 reversed $146 $-1 #
coedge $-1 -1 $-1 $271 $148 $208 $272 forward $111 $-1 #
coedge $-1 -1 $-1 $148 $271 $203 $270 forward $111 $-1 #
coedge $-1 -1 $-1 $273 $155 $148 $207 reversed $157 $-1 #
edge $274 -1 $-1 $275 -0.785398163397448279 $276 0.785398163397448279 $206 $277 forward @7 unknown #
coedge $-1 -1 $-1 $150 $149 $204 $272 reversed $86 $-1 #
coedge $-1 -1 $-1 $190 $278 $149 $210 forward $129 $-1 #
edge $279 -1 $-1 $280 2 $213 10 $209 $281 forward @7 unknown #
edge $282 -1 $-1 $159 -9 $276 -1 $150 $283 forward @7 unknown #
color-adesk-attrib $-1 -1 $-1 $-1 $151 256 #
vertex $-1 -1 $-1 $215 $284 #
straight-curve $-1 -1 $-1 115 -27.99999999999997513 -2.25 0 0 1 F -6.200001000000000317 F 11.20000099999999854 #
edge $285 -1 $-1 $217 -0.785398163397448279 $213 0.785398163397448279 $190 $286 forward @7 unknown #
color-adesk-attrib $-1 -1 $-1 $-1 $154 256 #
vertex $-1 -1 $-1 $191 $287 #
straight-curve $-1 -1 $-1 113 -29.99999999999997513 -2.25 0 0 -1 F -11.20000099999999854 F 6.200001000000000317 #
edge $288 -1 $-1 $180 -60 $160 -2 $177 $289 forward @7 unknown #
point $-1 -1 $-1 115 -27.99999999999997513 2.75 #
point $-1 -1 $-1 113 -29.99999999999997513 2.75 #
edge $290 -1 $-1 $233 -11.33831699346405308 $227 -1.338316993464053084 $198 $291 forward @7 unknown #
coedge $-1 -1 $-1 $292 $163 $168 $237 reversed $225 $-1 #
coedge $-1 -1 $-1 $163 $293 $261 $294 forward $225 $-1 #
loop $-1 -1 $-1 $-1 $292 $258 #
color-adesk-attrib $-1 -1 $-1 $-1 $164 256 #
vertex $-1 -1 $-1 $164 $295 #
straight-curve $-1 -1 $-1 55 5.000000000000012434 -2 0 0 1 I I #
coedge $-1 -1 $-1 $296 $165 $262 $297 reversed $231 $-1 #
coedge $-1 -1 $-1 $165 $298 $167 $236 forward $231 $-1 #
loop $-1 -1 $-1 $-1 $298 $299 #
color-adesk-attrib $-1 -1 $-1 $-1 $166 256 #
vertex $-1 -1 $-1 $166 $300 #
straight-curve $-1 -1 $-1 55 -4.999999999999987566 -2 0 0 1 I I #
coedge $-1 -1 $-1 $168 $167 $301 $302 reversed $169 $-1 #
edge $303 -1 $-1 $304 30 $172 40 $230 $305 forward @7 unknown #
edge $306 -1 $-1 $307 30 $171 40 $223 $308 forward @7 unknown #
point $-1 -1 $-1 55 5.000000000000012434 -2 #
point $-1 -1 $-1 55 -4.999999999999987566 -2 #
coedge $-1 -1 $-1 $174 $309 $182 $246 forward $157 $-1 #
color-adesk-attrib $-1 -1 $-1 $-1 $175 256 #
straight-curve $-1 -1 $-1 55 5.000000000000012434 2.75 2.220446049250313081e-16 -1 0 I I #
face $310 -1 $-1 $80 $178 $3 $-1 $311 forward single #
point $-1 -1 $-1 55.00000000000000711 -29.99999999999998934 2.75 #
coedge $-1 -1 $-1 $183 $182 $312 $313 reversed $184 $-1 #
edge $314 -1 $-1 $315 -58 $186 -0 $182 $316 forward @7 unknown #
face $317 -1 $-1 $318 $184 $3 $-1 $319 forward single #
point $-1 -1 $-1 54.99999999999999289 30.00000000000001066 2.75 #
coedge $-1 -1 $-1 $320 $188 $321 $322 forward $129 $-1 #
coedge $-1 -1 $-1 $312 $323 $188 $251 forward $324 $-1 #
edge $325 -1 $-1 $326 -0.785398163397448279 $253 0.785398163397448279 $188 $327 forward @7 unknown #
color-adesk-attrib $-1 -1 $-1 $-1 $189 256 #
vertex $-1 -1 $-1 $251 $328 #
straight-curve $-1 -1 $-1 54.99999999999999289 30.00000000000001066 -2.25 1 2.220446049250313081e-16 0 F 0 F 60 #
color-adesk-attrib $-1 -1 $-1 $-1 $191 256 #
straight-curve $-1 -1 $-1 115 -29.99999999999997513 -2.25 -1 -2.220446049250313081e-16 0 F 0 F 60 #
color-adesk-attrib $-1 -1 $-1 $-1 $196 256 #
face $329 -1 $-1 $330 $225 $3 $-1 $331 reversed single #
loop $-1 -1 $-1 $-1 $332 $196 #
cone-surface $-1 -1 $-1 23.20550528229663101 3.108624468950438313e-15 43 0 1 0 21.79449471770336899 0 -45 1 I I 0 1 50 reversed I I I I #
coedge $-1 -1 $-1 $333 $198 $224 $294 reversed $142 $-1 #
coedge $-1 -1 $-1 $198 $333 $229 $297 forward $142 $-1 #
color-adesk-attrib $-1 -1 $-1 $-1 $200 256 #
face $334 -1 $-1 $247 $324 $3 $-1 $335 forward single #
loop $-1 -1 $-1 $-1 $336 $200 #
plane-surface $-1 -1 $-1 115 18.00000000000002487 -2.25 1 2.220446049250313081e-16 0 -2.220446049250313081e-16 1 0 forward_v I I I I #
coedge $-1 -1 $-1 $337 $338 $339 $340 forward $201 $-1 #
coedge $-1 -1 $-1 $341 $203 $342 $343 reversed $146 $-1 #
coedge $-1 -1 $-1 $203 $341 $273 $344 reversed $146 $-1 #
edge $345 -1 $-1 $346 0 $275 5 $203 $347 forward @7 tangent #
coedge $-1 -1 $-1 $205 $204 $278 $348 forward $111 $-1 #
edge $349 -1 $-1 $276 -5 $280 0 $208 $350 forward @7 tangent #
coedge $-1 -1 $-1 $351 $206 $269 $344 forward $157 $-1 #
color-adesk-attrib $-1 -1 $-1 $-1 $207 256 #
vertex $-1 -1 $-1 $344 $352 #
vertex $-1 -1 $-1 $272 $353 #
ellipse-curve $-1 -1 $-1 113 -19.99999999999997513 2.75 0 0 -1 1.414213562373094701 1.414213562373095145 0 1 I I #
coedge $-1 -1 $-1 $209 $342 $271 $348 reversed $129 $-1 #
color-adesk-attrib $-1 -1 $-1 $-1 $210 256 #
vertex $-1 -1 $-1 $210 $354 #
straight-curve $-1 -1 $-1 115 -17.99999999999997513 -2.25 2.220446049250313081e-16 -1 0 F 0 F 12 #
color-adesk-attrib $-1 -1 $-1 $-1 $211 256 #
straight-curve $-1 -1 $-1 115 -18.99999999999997513 2.75 -2.220446049250313081e-16 1 0 I I #
point $-1 -1 $-1 115 -27.99999999999997513 -2.25 #
color-adesk-attrib $-1 -1 $-1 $-1 $215 256 #
ellipse-curve $-1 -1 $-1 113 -27.99999999999997513 -2.25 0 0 1 1.414213562373095145 -1.414213562373094701 0 1 I I #
point $-1 -1 $-1 113 -29.99999999999997513 -2.25 #
color-adesk-attrib $-1 -1 $-1 $-1 $219 256 #
straight-curve $-1 -1 $-1 115 -29.99999999999997513 2.75 1 2.220446049250313081e-16 0 I I #
color-adesk-attrib $-1 -1 $-1 $-1 $222 256 #
straight-curve $-1 -1 $-1 55 6.338316993464065519 2 -2.220446049250313081e-16 1 0 I I #
coedge $-1 -1 $-1 $355 $223 $356 $357 reversed $225 $-1 #
coedge $-1 -1 $-1 $224 $355 $358 $359 reversed $225 $-1 #
edge $360 -1 $-1 $361 0 $227 40 $261 $362 forward @7 unknown #
point $-1 -1 $-1 55 5.000000000000012434 2 #
coedge $-1 -1 $-1 $363 $229 $364 $365 reversed $231 $-1 #
edge $366 -1 $-1 $367 0 $233 40 $229 $368 forward @7 unknown #
coedge $-1 -1 $-1 $230 $363 $332 $369 reversed $231 $-1 #
face $370 -1 $-1 $371 $231 $3 $-1 $372 reversed single #
point $-1 -1 $-1 55 -4.999999999999987566 2 #
coedge $-1 -1 $-1 $332 $356 $235 $302 forward $259 $-1 #
edge $373 -1 $-1 $307 -5 $304 5 $301 $374 forward @7 unknown #
color-adesk-attrib $-1 -1 $-1 $-1 $236 256 #
vertex $-1 -1 $-1 $369 $375 #
straight-curve $-1 -1 $-1 15.00000000000000178 -4.999999999999996447 -2 1 2.220446049250313081e-16 0 F 0 F 40 #
color-adesk-attrib $-1 -1 $-1 $-1 $237 256 #
vertex $-1 -1 $-1 $302 $376 #
straight-curve $-1 -1 $-1 14.99999999999999822 5.000000000000003553 -2 1 2.220446049250313081e-16 0 F 0 F 40 #
coedge $-1 -1 $-1 $240 $377 $378 $379 reversed $157 $-1 #
color-adesk-attrib $-1 -1 $-1 $-1 $243 256 #
plane-surface $-1 -1 $-1 55.00000000000000711 -29.99999999999998934 -2.25 2.220446049250313081e-16 -1 0 1 2.220446049250313081e-16 0 forward_v I I I I #
coedge $-1 -1 $-1 $378 $250 $245 $313 forward $324 $-1 #
edge $380 -1 $-1 $253 0 $315 5 $245 $381 forward @7 tangent #
color-adesk-attrib $-1 -1 $-1 $-1 $246 256 #
vertex $-1 -1 $-1 $246 $382 #
straight-curve $-1 -1 $-1 54.99999999999999289 30.00000000000001066 2.75 -1 -2.220446049250313081e-16 -0 I I #
color-adesk-attrib $-1 -1 $-1 $-1 $247 256 #
face $383 -1 $-1 $384 $385 $3 $-1 $386 forward single #
plane-surface $-1 -1 $-1 115 30.00000000000002487 -2.25 -2.220446049250313081e-16 1 0 -1 -2.220446049250313081e-16 -0 forward_v I I I I #
coedge $-1 -1 $-1 $387 $249 $388 $389 reversed $129 $-1 #
coedge $-1 -1 $-1 $390 $336 $249 $322 reversed $265 $-1 #
edge $391 -1 $-1 $326 2 $392 10 $249 $393 forward @7 unknown #
coedge $-1 -1 $-1 $250 $378 $390 $394 forward $324 $-1 #
loop $-1 -1 $-1 $-1 $378 $264 #
color-adesk-attrib $-1 -1 $-1 $-1 $251 256 #
vertex $-1 -1 $-1 $322 $395 #
ellipse-curve $-1 -1 $-1 113 28.00000000000002487 -2.25 0 0 1 1.414213562373094701 1.414213562373095145 0 1 I I #
point $-1 -1 $-1 113 30.00000000000002487 -2.25 #
color-adesk-attrib $-1 -1 $-1 $-1 $258 256 #
face $396 -1 $-1 $299 $397 $3 $-1 $398 forward single #
plane-surface $-1 -1 $-1 30 5.000000000000003553 -4.5 0 -1 0 0 0 1 reverse_v I I I I #
coedge $-1 -1 $-1 $399 $301 $298 $369 forward $259 $-1 #
coedge $-1 -1 $-1 $262 $261 $400 $401 reversed $142 $-1 #
color-adesk-attrib $-1 -1 $-1 $-1 $264 256 #
cone-surface $-1 -1 $-1 113 28.00000000000002487 -2.25 0 0 1 1.414213562373094701 1.414213562373095145 0 1 I I 0 1 1.999999999999999778 forward I I I I #
coedge $-1 -1 $-1 $321 $402 $338 $403 reversed $265 $-1 #
coedge $-1 -1 $-1 $388 $267 $404 $405 forward $201 $-1 #
coedge $-1 -1 $-1 $267 $388 $336 $403 forward $201 $-1 #
coedge $-1 -1 $-1 $377 $406 $267 $340 reversed $157 $-1 #
edge $407 -1 $-1 $408 -0.785398163397448279 $409 0.785398163397448279 $339 $410 forward @7 unknown #
coedge $-1 -1 $-1 $269 $268 $411 $412 forward $146 $-1 #
coedge $-1 -1 $-1 $278 $413 $268 $343 forward $129 $-1 #
edge $414 -1 $-1 $415 0 $346 45.5 $342 $416 forward @7 unknown #
edge $417 -1 $-1 $275 -45.5 $418 -0 $269 $419 forward @7 unknown #
color-adesk-attrib $-1 -1 $-1 $-1 $270 256 #
vertex $-1 -1 $-1 $348 $420 #
straight-curve $-1 -1 $-1 113 -17.99999999999997513 -2.25 0 0 1 F -6.200001000000000317 F 11.20000099999999854 #
edge $421 -1 $-1 $280 -0.785398163397448279 $346 0.785398163397448279 $278 $422 forward @7 unknown #
color-adesk-attrib $-1 -1 $-1 $-1 $272 256 #
straight-curve $-1 -1 $-1 115 -19.99999999999997513 -2.25 0 0 -1 F -11.20000099999999854 F 6.200001000000000317 #
coedge $-1 -1 $-1 $406 $273 $423 $424 forward $157 $-1 #
point $-1 -1 $-1 113 -17.99999999999997513 2.75 #
point $-1 -1 $-1 115 -19.99999999999997513 2.75 #
point $-1 -1 $-1 115 -19.99999999999997513 -2.25 #
coedge $-1 -1 $-1 $293 $292 $425 $426 forward $225 $-1 #
coedge $-1 -1 $-1 $301 $399 $292 $357 forward $259 $-1 #
edge $427 -1 $-1 $428 5.832158495383323427 $307 6.283185307179586232 $292 $429 forward @7 unknown #
coedge $-1 -1 $-1 $430 $400 $293 $359 forward $431 $-1 #
edge $432 -1 $-1 $361 -4.25 $433 4.75 $358 $434 forward @7 unknown #
color-adesk-attrib $-1 -1 $-1 $-1 $294 256 #
vertex $-1 -1 $-1 $401 $435 #
straight-curve $-1 -1 $-1 14.99999999999999822 5.000000000000003553 2 1 2.220446049250313081e-16 0 I I #
coedge $-1 -1 $-1 $298 $296 $436 $437 forward $231 $-1 #
coedge $-1 -1 $-1 $400 $430 $296 $365 forward $431 $-1 #
edge $438 -1 $-1 $439 -4.75 $367 4.25 $364 $440 forward @7 unknown #
color-adesk-attrib $-1 -1 $-1 $-1 $297 256 #
vertex $-1 -1 $-1 $401 $441 #
straight-curve $-1 -1 $-1 15.00000000000000178 -4.999999999999996447 2 1 2.220446049250313081e-16 0 I I #
edge $442 -1 $-1 $304 0 $443 0.4510268117962624723 $298 $444 forward @7 unknown #
color-adesk-attrib $-1 -1 $-1 $-1 $299 256 #
face $445 -1 $-1 $446 $447 $3 $-1 $448 reversed single #
plane-surface $-1 -1 $-1 30 -4.999999999999996447 -4.5 0 1 0 0 0 -1 reverse_v I I I I #
color-adesk-attrib $-1 -1 $-1 $-1 $302 256 #
straight-curve $-1 -1 $-1 45 3.108624468950438313e-15 -2 0 -1 0 I I #
point $-1 -1 $-1 45 -4.999999999999996447 -2 #
point $-1 -1 $-1 45 5.000000000000003553 -2 #
coedge $-1 -1 $-1 $309 $339 $402 $449 forward $157 $-1 #
coedge $-1 -1 $-1 $323 $312 $309 $379 forward $324 $-1 #
edge $450 -1 $-1 $315 -0.785398163397448279 $451 0.785398163397448279 $309 $452 forward @7 unknown #
color-adesk-attrib $-1 -1 $-1 $-1 $313 256 #
straight-curve $-1 -1 $-1 113 30.00000000000002487 -2.25 0 0 1 F -6.200001000000000317 F 11.20000099999999854 #
point $-1 -1 $-1 113 30.00000000000002487 2.75 #
color-adesk-attrib $-1 -1 $-1 $-1 $318 256 #
face $453 -1 $-1 $243 $454 $3 $-1 $455 forward single #
loop $-1 -1 $-1 $-1 $404 $318 #
plane-surface $-1 -1 $-1 67.5 18.00000000000001421 -2.25 2.220446049250313081e-16 -1 0 1 2.220446049250313081e-16 0 forward_v I I I I #
coedge $-1 -1 $-1 $413 $320 $456 $457 forward $129 $-1 #
coedge $-1 -1 $-1 $338 $337 $320 $389 forward $201 $-1 #
edge $458 -1 $-1 $459 -0.785398163397448279 $392 0.785398163397448279 $320 $460 forward @7 unknown #
coedge $-1 -1 $-1 $402 $321 $323 $394 reversed $265 $-1 #
color-adesk-attrib $-1 -1 $-1 $-1 $322 256 #
vertex $-1 -1 $-1 $389 $461 #
straight-curve $-1 -1 $-1 115 30.00000000000002487 -2.25 2.220446049250313081e-16 -1 0 F 0 F 12 #
edge $462 -1 $-1 $451 -5 $326 0 $390 $463 forward @7 tangent #
point $-1 -1 $-1 115 28.00000000000002487 -2.25 #
color-adesk-attrib $-1 -1 $-1 $-1 $330 256 #
loop $-1 -1 $-1 $-1 $464 $330 #
plane-surface $-1 -1 $-1 30 3.108624468950438313e-15 -7 0 0 -1 1 0 0 reverse_v I I I I #
coedge $-1 -1 $-1 $356 $332 $464 $465 forward $259 $-1 #
coedge $-1 -1 $-1 $358 $364 $333 $401 forward $431 $-1 #
edge $466 -1 $-1 $367 -10.46331699346405841 $361 -0.4633169934640584131 $400 $467 forward @7 unknown #
coedge $-1 -1 $-1 $336 $390 $377 $449 reversed $265 $-1 #
edge $468 -1 $-1 $392 0 $408 5 $336 $469 forward @7 tangent #
coedge $-1 -1 $-1 $470 $456 $337 $405 reversed $385 $-1 #
edge $471 -1 $-1 $409 -5 $459 0 $404 $472 forward @7 tangent #
coedge $-1 -1 $-1 $339 $351 $470 $473 forward $157 $-1 #
color-adesk-attrib $-1 -1 $-1 $-1 $340 256 #
vertex $-1 -1 $-1 $449 $474 #
vertex $-1 -1 $-1 $405 $475 #
ellipse-curve $-1 -1 $-1 113 20.00000000000002487 2.75 0 0 -1 1.414213562373095145 -1.414213562373094701 0 1 I I #
coedge $-1 -1 $-1 $476 $423 $341 $412 reversed $454 $-1 #
edge $477 -1 $-1 $415 0 $418 5 $341 $478 forward @7 unknown #
coedge $-1 -1 $-1 $342 $387 $476 $479 forward $129 $-1 #
color-adesk-attrib $-1 -1 $-1 $-1 $343 256 #
vertex $-1 -1 $-1 $479 $480 #
straight-curve $-1 -1 $-1 67.5 -17.99999999999998579 -2.25 1 2.220446049250313081e-16 0 F 0 F 47.5 #
color-adesk-attrib $-1 -1 $-1 $-1 $344 256 #
vertex $-1 -1 $-1 $412 $481 #
straight-curve $-1 -1 $-1 67.5 -17.99999999999998579 2.75 -1 -2.220446049250313081e-16 -0 I I #
point $-1 -1 $-1 113 -17.99999999999997513 -2.25 #
color-adesk-attrib $-1 -1 $-1 $-1 $348 256 #
ellipse-curve $-1 -1 $-1 113 -19.99999999999997513 -2.25 0 0 1 1.414213562373094701 1.414213562373095145 0 1 I I #
coedge $-1 -1 $-1 $411 $482 $351 $424 reversed $454 $-1 #
edge $483 -1 $-1 $418 -18 $484 18 $423 $485 forward @7 unknown #
coedge $-1 -1 $-1 $464 $486 $355 $426 reversed $397 $-1 #
edge $487 -1 $-1 $428 6.794494717703368991 $433 15 $355 $488 forward @7 unknown #
color-adesk-attrib $-1 -1 $-1 $-1 $357 256 #
vertex $-1 -1 $-1 $426 $489 #
ellipse-curve $-1 -1 $-1 23.20550528229663101 5.000000000000003553 43 0 -1 0 21.79449471770336899 0 -45 1 F 2.690565841793530755 F 8.973751148973116543 #
coedge $-1 -1 $-1 $364 $358 $486 $490 forward $431 $-1 #
loop $-1 -1 $-1 $491 $400 $492 #
color-adesk-attrib $-1 -1 $-1 $-1 $359 256 #
vertex $-1 -1 $-1 $359 $493 #
straight-curve $-1 -1 $-1 15 5.000000000000003553 -2.25 -0 -0 -1 I I #
point $-1 -1 $-1 14.99999999999999822 5.000000000000003553 2 #
coedge $-1 -1 $-1 $486 $464 $363 $437 reversed $397 $-1 #
edge $494 -1 $-1 $439 -15 $443 -6.794494717703368991 $363 $495 forward @7 unknown #
color-adesk-attrib $-1 -1 $-1 $-1 $365 256 #
vertex $-1 -1 $-1 $490 $496 #
straight-curve $-1 -1 $-1 15 -4.999999999999996447 -2.25 0 -0 1 I I #
point $-1 -1 $-1 15.00000000000000178 -4.999999999999996447 2 #
color-adesk-attrib $-1 -1 $-1 $-1 $369 256 #
vertex $-1 -1 $-1 $465 $497 #
ellipse-curve $-1 -1 $-1 23.20550528229663101 -4.999999999999996447 43 0 1 0 21.79449471770336899 0 -45 1 F -2.690565841793530755 F 3.592619465386055477 #
color-adesk-attrib $-1 -1 $-1 $-1 $371 256 #
face $498 -1 $-1 $499 $500 $3 $-1 $501 reversed single #
loop $-1 -1 $-1 $502 $503 $371 #
cone-surface $-1 -1 $-1 0 0 0 0 0 1 1.165734175856414367e-15 -5.25 0 1 I I 0 1 5.25 forward I I I I #
edge $504 -1 $-1 $408 1 $451 9 $402 $505 forward @7 unknown #
color-adesk-attrib $-1 -1 $-1 $-1 $379 256 #
vertex $-1 -1 $-1 $394 $506 #
ellipse-curve $-1 -1 $-1 113 28.00000000000002487 2.75 0 0 -1 1.414213562373094701 1.414213562373095145 0 1 I I #
color-adesk-attrib $-1 -1 $-1 $-1 $384 256 #
loop $-1 -1 $-1 $-1 $476 $384 #
plane-surface $-1 -1 $-1 67.5 -17.99999999999998579 -2.25 1 2.220446049250313081e-16 0 -2.220446049250313081e-16 1 0 forward_v I I I I #
coedge $-1 -1 $-1 $404 $507 $387 $457 reversed $385 $-1 #
edge $508 -1 $-1 $459 2 $509 47.5 $387 $510 forward @7 unknown #
color-adesk-attrib $-1 -1 $-1 $-1 $389 256 #
vertex $-1 -1 $-1 $457 $511 #
ellipse-curve $-1 -1 $-1 113 20.00000000000002487 -2.25 0 0 1 1.414213562373095145 -1.414213562373094701 0 1 I I #
point $-1 -1 $-1 115 20.00000000000002487 -2.25 #
color-adesk-attrib $-1 -1 $-1 $-1 $394 256 #
straight-curve $-1 -1 $-1 115 28.00000000000002487 -2.25 0 0 -1 F -11.20000099999999854 F 6.200001000000000317 #
coedge $-1 -1 $-1 $436 $425 $399 $465 reversed $397 $-1 #
edge $512 -1 $-1 $443 -0.1000000000000000056 $428 0.1000000000000000056 $464 $513 forward @7 tangent #
color-adesk-attrib $-1 -1 $-1 $-1 $401 256 #
straight-curve $-1 -1 $-1 15 5.463316993464061966 2 0 1 -0 I I #
color-adesk-attrib $-1 -1 $-1 $-1 $403 256 #
straight-curve $-1 -1 $-1 115 20.00000000000002487 -2.25 0 0 1 F -6.200001000000000317 F 11.20000099999999854 #
coedge $-1 -1 $-1 $507 $404 $406 $473 reversed $385 $-1 #
color-adesk-attrib $-1 -1 $-1 $-1 $405 256 #
straight-curve $-1 -1 $-1 113 18.00000000000002487 -2.25 0 0 -1 F -11.20000099999999854 F 6.200001000000000317 #
edge $514 -1 $-1 $484 -47.5 $409 -2 $470 $515 forward @7 unknown #
point $-1 -1 $-1 115 20.00000000000002487 2.75 #
point $-1 -1 $-1 113 18.00000000000002487 2.75 #
coedge $-1 -1 $-1 $482 $411 $413 $479 reversed $454 $-1 #
color-adesk-attrib $-1 -1 $-1 $-1 $412 256 #
straight-curve $-1 -1 $-1 67.5 -17.99999999999998579 -2.25 0 0 1 I I #
edge $516 -1 $-1 $509 0 $415 36 $413 $517 forward @7 unknown #
point $-1 -1 $-1 67.5 -17.99999999999998579 -2.25 #
point $-1 -1 $-1 67.5 -17.99999999999998579 2.75 #
coedge $-1 -1 $-1 $423 $476 $507 $518 forward $454 $-1 #
color-adesk-attrib $-1 -1 $-1 $-1 $424 256 #
vertex $-1 -1 $-1 $518 $519 #
straight-curve $-1 -1 $-1 67.5 1.49880108324396133e-14 2.75 -2.220446049250313081e-16 1 0 I I #
coedge $-1 -1 $-1 $425 $436 $430 $490 reversed $397 $-1 #
color-adesk-attrib $-1 -1 $-1 $-1 $426 256 #
straight-curve $-1 -1 $-1 30 5.000000000000003553 -7 -1 0 0 I I #
point $-1 -1 $-1 23.20550528229663101 5.000000000000003553 -7 #
edge $520 -1 $-1 $433 -5.000000000000001776 $439 4.999999999999998224 $430 $521 forward @7 unknown #
loop $-1 -1 $-1 $-1 $522 $492 #
face $523 -1 $-1 $-1 $431 $3 $-1 $524 reversed single #
point $-1 -1 $-1 15 5.000000000000003553 -7 #
color-adesk-attrib $-1 -1 $-1 $-1 $437 256 #
straight-curve $-1 -1 $-1 30 -4.999999999999996447 -7 1 0 0 I I #
point $-1 -1 $-1 15 -4.999999999999996447 -7 #
point $-1 -1 $-1 23.20550528229663101 -4.999999999999996447 -7 #
color-adesk-attrib $-1 -1 $-1 $-1 $446 256 #
face $525 -1 $-1 $526 $527 $3 $-1 $528 reversed single #
loop $-1 -1 $-1 $529 $530 $446 #
cone-surface $-1 -1 $-1 -8.460000000000000853 -0.0420000000000010712 -0.3780000000000008908 1 0 -1.224646799147353207e-16 0 -2.100000000000000089 0 1 I I 0 1 2.100000000000000089 forward I I I I #
loop $-1 -1 $-1 $531 $532 $371 #
coedge $-1 -1 $-1 $503 $503 $530 $533 reversed $447 $-1 #
color-adesk-attrib $-1 -1 $-1 $-1 $449 256 #
straight-curve $-1 -1 $-1 115 19.00000000000002487 2.75 -2.220446049250313081e-16 1 0 I I #
point $-1 -1 $-1 115 28.00000000000002487 2.75 #
coedge $-1 -1 $-1 $456 $470 $482 $518 reversed $385 $-1 #
color-adesk-attrib $-1 -1 $-1 $-1 $457 256 #
vertex $-1 -1 $-1 $457 $534 #
straight-curve $-1 -1 $-1 115 18.00000000000002487 -2.25 -1 -2.220446049250313081e-16 0 F 0 F 47.5 #
point $-1 -1 $-1 113 18.00000000000002487 -2.25 #
color-adesk-attrib $-1 -1 $-1 $-1 $465 256 #
straight-curve $-1 -1 $-1 23.20550528229663101 3.108624468950438313e-15 -7 0 50 0 F -0.1000000000000000056 F 0.1000000000000000056 #
color-adesk-attrib $-1 -1 $-1 $-1 $473 256 #
straight-curve $-1 -1 $-1 115 18.00000000000002487 2.75 1 2.220446049250313081e-16 0 I I #
color-adesk-attrib $-1 -1 $-1 $-1 $479 256 #
straight-curve $-1 -1 $-1 67.5 18.00000000000001421 -2.25 2.220446049250313081e-16 -1 0 F 0 F 36 #
edge $535 -1 $-1 $509 0 $484 5 $482 $536 forward @7 unknown #
point $-1 -1 $-1 67.5 18.00000000000001421 2.75 #
color-adesk-attrib $-1 -1 $-1 $-1 $490 256 #
straight-curve $-1 -1 $-1 15 1.554312234475219157e-15 -7 -0 -1 -0 I I #
coedge $-1 -1 $-1 $537 $538 $539 $540 forward $491 $-1 #
color-adesk-attrib $-1 -1 $-1 $-1 $492 256 #
plane-surface $-1 -1 $-1 15 0 0 -1 0 0 0 -0 1 forward_v I I I I #
color-adesk-attrib $-1 -1 $-1 $-1 $499 256 #
face $541 -1 $-1 $542 $543 $3 $-1 $544 reversed single #
loop $-1 -1 $-1 $545 $546 $499 #
cone-surface $-1 -1 $-1 0.0799999999999927297 0.06000000000001182165 0 0 1 0 -2.100000000000000089 0 0 1 I I 0 1 2.100000000000000089 forward I I I I #
loop $-1 -1 $-1 $-1 $547 $446 #
coedge $-1 -1 $-1 $530 $530 $503 $533 forward $500 $-1 #
loop $-1 -1 $-1 $548 $549 $371 #
coedge $-1 -1 $-1 $532 $532 $546 $550 reversed $502 $-1 #
edge $551 -1 $-1 $552 0 $552 12.81411312343235309 $530 $553 forward @7 unknown #
point $-1 -1 $-1 67.5 18.00000000000001421 -2.25 #
color-adesk-attrib $-1 -1 $-1 $-1 $518 256 #
straight-curve $-1 -1 $-1 67.5 18.00000000000001421 -2.25 0 0 1 I I #
coedge $-1 -1 $-1 $554 $522 $555 $556 reversed $491 $-1 #
coedge $-1 -1 $-1 $522 $554 $557 $558 reversed $491 $-1 #
coedge $-1 -1 $-1 $559 $560 $522 $540 reversed $561 $-1 #
edge $562 -1 $-1 $563 -10 $564 10 $522 $565 forward @7 unknown #
color-adesk-attrib $-1 -1 $-1 $-1 $526 256 #
face $566 -1 $-1 $567 $568 $3 $-1 $569 forward single #
loop $-1 -1 $-1 $570 $571 $526 #
cone-surface $-1 -1 $-1 -0.08000000000000781486 2.380000000000012328 0 0 1 0 -2.100000000000000089 0 0 1 I I 0 1 2.100000000000000089 forward I I I I #
loop $-1 -1 $-1 $-1 $572 $499 #
coedge $-1 -1 $-1 $546 $546 $532 $550 forward $527 $-1 #
coedge $-1 -1 $-1 $547 $547 $573 $574 reversed $529 $-1 #
loop $-1 -1 $-1 $575 $576 $371 #
coedge $-1 -1 $-1 $549 $549 $571 $577 reversed $531 $-1 #
edge $578 -1 $-1 $579 0 $579 12.8147973873441714 $546 $580 forward @7 unknown #
color-adesk-attrib $-1 -1 $-1 $-1 $533 256 #
vertex $-1 -1 $-1 $533 $581 #
intcurve-curve $-1 -1 $-1 forward { surfintcur full nubs 3 periodic 33 
	0 3 0.4005396912902760009 2 0.8010793825805520019 2 1.201619073870828114 2 1.602158765161104004 2 
	2.001878771219619768 2 2.401598777278135532 2 2.801318783336651297 2 3.201038789395167061 2 3.601810105949004637 2 
	4.002581422502841768 2 4.403352739056678899 2 4.804124055610516919 2 5.204857182136931826 2 5.605590308663346732 2 
	6.006323435189761639 2 6.407056561716176546 2 6.807789688242591453 2 7.208522814769006359 2 7.609255941295421266 2 
	8.009989067821836173 2 8.410760384375674192 2 8.811531700929510436 2 9.212303017483348455 2 9.613074334037186475 2 
	10.01279434009570224 2 10.412514346154218 2 10.81223435221273377 2 11.21195435827124953 2 11.61249404956152631 2 
	12.01303374085180131 2 12.41357343214207631 2 12.81411312343235309 3 
	-4.829817387852257227 2.057999999999998941 -0.3780000000000013349 
	-4.829817387852257227 2.057999999999998941 -0.2444867695699093346 
	-4.835397392737963429 2.045063407421656265 -0.1069463430619070898 
	-4.857841819935215355 1.99116175551152863 0.1656515699582272461 
	-4.874679042237575644 1.950214177005868077 0.3007147515417198935 
	-4.916373526984758158 1.842580252796565565 0.55897858231117592 
	-4.941215090055046666 1.775808662125098358 0.6824121347955917072 
	-4.993806386646588713 1.622035986689391418 0.910365811610128417 
	-5.02150217404158461 1.53501923885592273 1.014887812439508652 
	-5.074349648093580356 1.350076257709961869 1.199713474168277338 
	-5.101420424498822825 1.245641988331716465 1.286589196115642153 
	-5.151724325286290984 1.017767550385031416 1.440178160102914218 
	-5.174912384422817979 0.8943252957487020094 1.506903063483912453 
	-5.212959960887545208 0.6360694695116144715 1.614432302705104627 
	-5.227821597591084668 0.5010227807926044274 1.655322923050076778 
	-5.246797204399152648 0.2286079155138380781 1.709114564648028356 
	-5.250897917328069653 0.09123573827121836399 1.721999999999998643 
	-5.248763273801102969 -0.1755861638888366605 1.721999999999998643 
	-5.24243566715930509 -0.3132210119505037804 1.709047939442649433 
	-5.218989039489520643 -0.5859970412031915155 1.655075787560252198 
	-5.201883129675998418 -0.7211426628445463116 1.614072444736946554 
	-5.159480755598337964 -0.9794861728902537479 1.506331972693051302 
	-5.134178452631946499 -1.102915046137370458 1.439510021496292369 
	-5.079901662795267114 -1.330717505344958029 1.285757976376700196 
	-5.050971969397826555 -1.435093655874966068 1.198815872913781 
	-4.994825762538428471 -1.619730059023968938 1.014057053829461319 
	-4.96556659312730897 -1.706547772397219775 0.909683097189062595 
	-4.910138807220083557 -1.860025210950989605 0.6820147998268961675 
	-4.884024282200559952 -1.926700883819800758 0.558718044346780518 
	-4.840228332814705325 -2.034222124695508338 0.3006667352178231112 
	-4.822562064596773723 -2.075153016027208697 0.1656770892608623313 
	-4.79901106260488497 -2.12905089885500276 -0.106864411530997877 
	-4.793155119542866771 -2.142000000000001236 -0.2444222911578629864 
	-4.793155119542866771 -2.142000000000001236 -0.5115777088421396002 
	-4.79901106260488497 -2.12905089885500276 -0.6491355884690048761 
	-4.822562064596773723 -2.075153016027208697 -0.9216770892608652233 
	-4.840228332814705325 -2.034222124695508338 -1.056666735217826059 
	-4.884024282200559952 -1.926700883819800758 -1.31471804434678341 
	-4.910138807220083557 -1.860025210950989383 -1.438014799826899059 
	-4.96556659312730897 -1.706547772397219331 -1.665683097189065487 
	-4.994825762538428471 -1.619730059023968938 -1.770057053829463767 
	-5.050971969397826555 -1.435093655874966068 -1.954815872913783448 
	-5.079901662795267114 -1.330717505344958695 -2.041757976376702644 
	-5.134178452631946499 -1.102915046137371347 -2.195510021496294595 
	-5.159480755598337964 -0.9794861728902546361 -2.26233197269305375 
	-5.201883129675998418 -0.7211426628445474218 -2.370072444736949002 
	-5.218989039489520643 -0.5859970412031924036 -2.411075787560254646 
	-5.24243566715930509 -0.3132210119505042245 -2.465047939442651881 
	-5.248763273801102969 -0.175586163888836827 -2.478000000000001535 
	-5.250897917328069653 0.0912357382712184195 -2.478000000000001535 
	-5.246797204399151759 0.2286079155138381613 -2.465114564648030804 
	-5.22782159759108378 0.5010227807926046495 -2.411322923050078781 
	-5.212959960887545208 0.6360694695116144715 -2.370432302705107297 
	-5.174912384422817979 0.8943252957487021204 -2.262903063483914678 
	-5.151724325286291872 1.017767550385031639 -2.196178160102917332 
	-5.101420424498823714 1.245641988331716465 -2.042589196115645489 
	-5.074349648093580356 1.350076257709961869 -1.955713474168279786 
	-5.021502174041583721 1.535019238855923174 -1.770887812439510878 
	-4.993806386646587825 1.622035986689391862 -1.666365811610130754 
	-4.941215090055045778 1.775808662125098358 -1.438412134795594266 
	-4.916373526984758158 1.842580252796565787 -1.314978582311178368 
	-4.874679042237575644 1.950214177005868521 -1.056714751541723007 
	-4.857841819935216243 1.99116175551152863 -0.9216515699582302767 
	-4.835397392737964317 2.045063407421656709 -0.6490536569380960241 
	-4.829817387852257227 2.057999999999998941 -0.5115132304300936683 
	-4.829817387852257227 2.057999999999998941 -0.3780000000000013349 
	0.0001416180764448875414 
	
	cone -8.460000000000000853 -0.0420000000000010712 -0.3780000000000008908 1 0 -1.224646799147353207e-16 0 -2.100000000000000089 0 1 I I -0 -1 2.100000000000000089 forward I I I I 
	cone 0 0 0 0 0 1 1.165734175856414367e-15 -5.25 0 1 I I -0 -1 5.25 forward I I I I 
	nullbs 
	nullbs 
	I I 
	0 
	0 
	0 
	} I I #
coedge $-1 -1 $-1 $538 $537 $582 $583 reversed $491 $-1 #
coedge $-1 -1 $-1 $584 $585 $537 $556 forward $586 $-1 #
edge $587 -1 $-1 $588 -10 $564 10 $537 $589 forward @7 unknown #
coedge $-1 -1 $-1 $590 $591 $538 $558 forward $592 $-1 #
edge $593 -1 $-1 $563 -10 $594 10 $538 $595 forward @7 unknown #
coedge $-1 -1 $-1 $596 $539 $591 $597 reversed $561 $-1 #
coedge $-1 -1 $-1 $539 $596 $584 $598 reversed $561 $-1 #
loop $-1 -1 $-1 $-1 $596 $599 #
color-adesk-attrib $-1 -1 $-1 $-1 $540 256 #
vertex $-1 -1 $-1 $558 $600 #
vertex $-1 -1 $-1 $540 $601 #
straight-curve $-1 -1 $-1 15 -10 0 0 0 -1 I I #
color-adesk-attrib $-1 -1 $-1 $-1 $542 256 #
face $602 -1 $-1 $599 $603 $3 $-1 $604 reversed single #
loop $-1 -1 $-1 $592 $605 $542 #
plane-surface $-1 -1 $-1 0 0 10 0 0 1 1 0 0 forward_v I I I I #
loop $-1 -1 $-1 $-1 $606 $526 #
coedge $-1 -1 $-1 $571 $571 $549 $577 forward $543 $-1 #
coedge $-1 -1 $-1 $572 $572 $607 $608 reversed $545 $-1 #
coedge $-1 -1 $-1 $573 $573 $547 $574 forward $609 $-1 #
edge $610 -1 $-1 $611 -3.141592653589793116 $611 3.141592653589793116 $573 $612 reversed @7 unknown #
loop $-1 -1 $-1 $-1 $613 $371 #
coedge $-1 -1 $-1 $576 $576 $605 $614 reversed $548 $-1 #
edge $615 -1 $-1 $616 0 $616 12.8147973873441714 $571 $617 forward @7 unknown #
color-adesk-attrib $-1 -1 $-1 $-1 $550 256 #
vertex $-1 -1 $-1 $550 $618 #
intcurve-curve $-1 -1 $-1 forward { surfintcur full nubs 3 periodic 33 
	0 3 0.4004543264144294068 2 0.8009086528288588136 2 1.201362979243288276 2 1.601817305657717627 2 
	2.001101910047838661 2 2.400386514437959473 2 2.799671118828080729 2 3.198955723218201541 2 3.600243446225576349 2 
	4.001531169232951157 2 4.402818892240325965 2 4.804106615247700773 2 5.204929634853797005 2 5.605752654459893236 2 
	6.006575674065990356 2 6.407398693672086587 2 6.808221713278182818 2 7.209044732884278162 2 7.609867752490374393 2 
	8.010690772096470624 2 8.411978495103845432 2 8.81326621811122024 2 9.214553941118595048 2 9.615841664125969857 2 
	10.01512626851609156 2 10.41441087290621148 2 10.8136954772963314 2 11.2129800816864531 2 11.61343440810088268 2 
	12.01388873451531225 2 12.41434306092974182 2 12.8147973873441714 3 
	-2.020000000000007567 -4.845833261679560522 0 
	-2.020000000000007567 -4.845833261679560522 0.1334847754714764689 
	-2.007068931208076723 -4.851290668182820731 0.2710169096418727497 
	-1.953166252597133834 -4.873242086091358338 0.5436376368585231766 
	-1.912211945526165913 -4.889709578469087603 0.6787317853750521879 
	-1.804530618651958296 -4.930464794302588771 0.937085992436982318 
	-1.737718386223603639 -4.954736561934852901 1.060577996068026163 
	-1.58382005563795869 -5.006055694669830913 1.288653809829439556 
	-1.49671841933440497 -5.033049177307479027 1.39323925590595632 
	-1.311641221519866729 -5.08441672115463561 1.578097343830018762 
	-1.207178472012523152 -5.110655012890087612 1.664947377928140959 
	-0.9792669113804680636 -5.15917734141051465 1.81846963166944442 
	-0.8558162319685432839 -5.181416187990989464 1.885153357039934585 
	-0.5975953349095349809 -5.217506583972700618 1.99259123432553209 
	-0.4625910560801497207 -5.23135855091187274 2.033432327064573997 
	-0.1903349961040427529 -5.248321194690049651 2.087144238621379877 
	-0.05307941494893050893 -5.251418553079846063 2.099999999999999645 
	0.2137470436296273757 -5.247352153956557963 2.100000000000000089 
	0.3515030705711343351 -5.240012645535359503 2.08701730216781689 
	0.6244472309682600475 -5.214532825642483438 2.032961472706848571 
	0.7596400020583844448 -5.196405554621444267 1.991905613394583163 
	1.018027948756597301 -5.152019284775382957 1.884065284445864741 
	1.141453124002075326 -5.125752783973877236 1.817196660384015283 
	1.369227512292937599 -5.069662006142963584 1.663363717794705599 
	1.473579505445951066 -5.039882401312047122 1.576387230721531196 
	1.658072628040812457 -4.982230895162306439 1.391656505550267431 
	1.744795084245511774 -4.952259327234531661 1.287353104085592559 
	1.898130945110907852 -4.89553687012036054 1.059820999817102871 
	1.964760430571587779 -4.868840139612523821 0.936589636068775766 
	2.072227068939298089 -4.824081604052325112 0.6786403564217120543 
	2.113149583581138025 -4.806034720359547485 0.5436863260591228153 
	2.167045090697307774 -4.781975164401649714 0.2711730765665086862 
	2.17999999999999261 -4.775992043544464494 0.1336076732020320679 
	2.17999999999999261 -4.775992043544464494 -0.1336076732020320679 
	2.167045090697308218 -4.781975164401649714 -0.2711730765665088527 
	2.113149583581138469 -4.806034720359547485 -0.5436863260591224822 
	2.072227068939297645 -4.824081604052325112 -0.6786403564217110551 
	1.964760430571587779 -4.868840139612523821 -0.9365896360687742117 
	1.898130945110908741 -4.89553687012036054 -1.059820999817101761 
	1.744795084245512884 -4.952259327234531661 -1.287353104085591227 
	1.658072628040813346 -4.982230895162306439 -1.391656505550265877 
	1.473579505445951954 -5.039882401312047122 -1.576387230721529864 
	1.369227512292938709 -5.069662006142963584 -1.663363717794705154 
	1.141453124002076436 -5.125752783973877236 -1.817196660384014839 
	1.018027948756598411 -5.152019284775382957 -1.884065284445864297 
	0.7596400020583851109 -5.196405554621444267 -1.991905613394582719 
	0.6244472309682609357 -5.214532825642483438 -2.032961472706849015 
	0.3515030705711350567 -5.240012645535359503 -2.087017302167817334 
	0.2137470436296279308 -5.247352153956557963 -2.100000000000000089 
	-0.05307941494893031464 -5.251418553079846063 -2.100000000000000089 
	-0.1903349961040426974 -5.248321194690049651 -2.087144238621379433 
	-0.4625910560801495541 -5.23135855091187274 -2.033432327064573553 
	-0.5975953349095344258 -5.217506583972700618 -1.99259123432553209 
	-0.8558162319685421737 -5.181416187990989464 -1.885153357039935029 
	-0.9792669113804677306 -5.159177341410515538 -1.818469631669445086 
	-1.20717847201252293 -5.110655012890089388 -1.664947377928141625 
	-1.311641221519865841 -5.08441672115463561 -1.57809734383001965 
	-1.496718419334404526 -5.033049177307479027 -1.393239255905957208 
	-1.583820055637957802 -5.00605569466983269 -1.288653809829440444 
	-1.737718386223602973 -4.954736561934854677 -1.060577996068027273 
	-1.804530618651957852 -4.930464794302588771 -0.9370859924369829841 
	-1.912211945526165469 -4.889709578469087603 -0.678731785375052743 
	-1.953166252597133834 -4.873242086091358338 -0.5436376368585236207 
	-2.007068931208076723 -4.851290668182820731 -0.2710169096418729162 
	-2.020000000000007567 -4.845833261679560522 -0.1334847754714765522 
	-2.020000000000007567 -4.845833261679560522 0 
	0.0001419588870870598402 
	
	cone 0.0799999999999927297 0.06000000000001182165 0 0 1 0 -2.100000000000000089 0 0 1 I I -0 -1 2.100000000000000089 forward I I I I 
	cone 0 0 0 0 0 1 1.165734175856414367e-15 -5.25 0 1 I I -0 -1 5.25 forward I I I I 
	nullbs 
	nullbs 
	I I 
	0 
	0 
	0 
	} I I #
point $-1 -1 $-1 -4.829817387852257227 2.057999999999998941 -0.3780000000000012794 #
coedge $-1 -1 $-1 $619 $620 $554 $583 forward $621 $-1 #
edge $622 -1 $-1 $594 -10 $588 10 $554 $623 forward @7 unknown #
coedge $-1 -1 $-1 $624 $555 $560 $598 forward $586 $-1 #
coedge $-1 -1 $-1 $555 $624 $619 $625 forward $586 $-1 #
loop $-1 -1 $-1 $-1 $555 $567 #
color-adesk-attrib $-1 -1 $-1 $-1 $556 256 #
vertex $-1 -1 $-1 $556 $626 #
straight-curve $-1 -1 $-1 15 0 -10 0 -1 0 I I #
coedge $-1 -1 $-1 $627 $557 $620 $628 forward $592 $-1 #
coedge $-1 -1 $-1 $557 $627 $559 $597 forward $592 $-1 #
loop $-1 -1 $-1 $-1 $557 $542 #
color-adesk-attrib $-1 -1 $-1 $-1 $558 256 #
vertex $-1 -1 $-1 $558 $629 #
straight-curve $-1 -1 $-1 15 0 10 0 1 0 I I #
coedge $-1 -1 $-1 $560 $559 $630 $631 forward $561 $-1 #
edge $632 -1 $-1 $633 -15 $563 15 $559 $634 forward @7 unknown #
edge $635 -1 $-1 $564 -15 $636 15 $560 $637 forward @7 unknown #
face $638 -1 $-1 $639 $640 $3 $-1 $641 reversed single #
point $-1 -1 $-1 15 -10 10 #
point $-1 -1 $-1 15 -10 -10 #
color-adesk-attrib $-1 -1 $-1 $-1 $567 256 #
loop $-1 -1 $-1 $586 $642 $567 #
plane-surface $-1 -1 $-1 0 0 -10 0 0 1 1 0 0 forward_v I I I I #
coedge $-1 -1 $-1 $605 $605 $576 $614 forward $568 $-1 #
coedge $-1 -1 $-1 $606 $606 $643 $644 reversed $570 $-1 #
coedge $-1 -1 $-1 $607 $607 $572 $608 forward $640 $-1 #
edge $645 -1 $-1 $646 -3.141592653589793116 $646 3.141592653589793116 $607 $647 reversed @7 unknown #
loop $-1 -1 $-1 $648 $573 $639 #
color-adesk-attrib $-1 -1 $-1 $-1 $574 256 #
vertex $-1 -1 $-1 $574 $649 #
ellipse-curve $-1 -1 $-1 -15 -0.0420000000000010712 -0.3780000000000001137 -1 -0 -0 0 -2.100000000000000089 0 1 I I #
coedge $-1 -1 $-1 $613 $613 $642 $650 reversed $575 $-1 #
edge $651 -1 $-1 $652 -3.141592653589793116 $652 3.141592653589793116 $605 $653 forward @7 unknown #
color-adesk-attrib $-1 -1 $-1 $-1 $577 256 #
vertex $-1 -1 $-1 $577 $654 #
intcurve-curve $-1 -1 $-1 forward { surfintcur full nubs 3 periodic 33 
	0 3 0.4008230196060963424 2 0.8016460392121926848 2 1.202469058818289138 2 1.60329207842438537 2 
	2.004579801431760622 2 2.40586752443913543 2 2.807155247446510682 2 3.208442970453885934 2 3.607727574844006746 2 
	4.007012179234127558 2 4.40629678362424837 2 4.805581388014369182 2 5.206035714428798755 2 5.606490040843228329 2 
	6.006944367257657902 2 6.407398693672086587 2 6.807853020086515272 2 7.208307346500944846 2 7.608761672915374419 2 
	8.009215999329803992 2 8.408500603719925692 2 8.807785208110045616 2 9.20706981250016554 2 9.60635441689028724 2 
	10.00764213989766205 2 10.40892986290503686 2 10.81021758591241166 2 11.21150530891978647 2 11.61232832852588359 2 
	12.01315134813197893 2 12.41397436773807428 2 12.8147973873441714 3 
	-2.180000000000007709 4.775992043544458276 0 
	-2.180000000000007709 4.775992043544458276 -0.1336076732020321234 
	-2.167045090697323317 4.781975164401643497 -0.2711730765665089082 
	-2.113149583581153124 4.806034720359542156 -0.5436863260591230373 
	-2.072227068939313188 4.824081604052318006 -0.6786403564217122764 
	-1.964760430571602878 4.868840139612516715 -0.936589636068775877 
	-1.898130945110922951 4.895536870120354322 -1.059820999817102871 
	-1.744795084245527095 4.952259327234525443 -1.287353104085592115 
	-1.658072628040828 4.982230895162301998 -1.391656505550266765 
	-1.473579505445966609 5.039882401312043569 -1.576387230721530308 
	-1.369227512292953142 5.069662006142960031 -1.663363717794705376 
	-1.141453124002090647 5.125752783973875459 -1.817196660384015283 
	-1.018027948756612844 5.15201928477538118 -1.884065284445864519 
	-0.7596400020583996548 5.196405554621440714 -1.991905613394583163 
	-0.6244472309682753686 5.214532825642480773 -2.032961472706848127 
	-0.3515030705711494896 5.240012645535358615 -2.087017302167816446 
	-0.2137470436296423637 5.247352153956557075 -2.100000000000000089 
	0.05307941494891572909 5.251418553079846951 -2.100000000000000089 
	0.1903349961040276539 5.248321194690049651 -2.087144238621379433 
	0.4625910560801345106 5.231358550911874516 -2.033432327064573553 
	0.5975953349095196598 5.217506583972703282 -1.99259123432553209 
	0.8558162319685278518 5.181416187990992128 -1.885153357039934807 
	0.9792669113804534087 5.159177341410517315 -1.81846963166944442 
	1.207178472012508719 5.110655012890092053 -1.664947377928140737 
	1.31164122151985163 5.084416721154640051 -1.57809734383001854 
	1.496718419334390315 5.033049177307483468 -1.39323925590595632 
	1.583820055637943147 5.006055694669835354 -1.288653809829439778 
	1.73771838622358854 4.954736561934859118 -1.060577996068025941 
	1.804530618651943641 4.930464794302592324 -0.9370859924369816518 
	1.912211945526151036 4.889709578469092932 -0.6787317853750514107 
	1.953166252597118957 4.873242086091363667 -0.5436376368585223995 
	2.007068931208061624 4.85129066818282606 -0.2710169096418723611 
	2.019999999999992468 4.845833261679566739 -0.1334847754714762746 
	2.019999999999992468 4.845833261679565851 0.1334847754714763024 
	2.007068931208061624 4.85129066818282606 0.2710169096418724166 
	1.953166252597118957 4.873242086091363667 0.5436376368585227326 
	1.912211945526150814 4.889709578469092932 0.6787317853750518548 
	1.804530618651943197 4.9304647943025941 0.937085992436982318 
	1.737718386223588318 4.954736561934859118 1.060577996068026385 
	1.583820055637942925 5.006055694669835354 1.28865380982944 
	1.496718419334389871 5.033049177307483468 1.393239255905956764 
	1.311641221519850964 5.084416721154640051 1.578097343830019206 
	1.207178472012507608 5.110655012890093829 1.664947377928141403 
	0.9792669113804520764 5.159177341410519091 1.818469631669444864 
	0.8558162319685269637 5.181416187990992128 1.885153357039935251 
	0.5975953349095193268 5.217506583972703282 1.992591234325532312 
	0.4625910560801343996 5.231358550911874516 2.033432327064573553 
	0.1903349961040275706 5.248321194690049651 2.087144238621379433 
	0.05307941494891543766 5.251418553079846951 2.100000000000000089 
	-0.2137470436296427523 5.247352153956557075 2.100000000000000089 
	-0.3515030705711498782 5.240012645535359503 2.08701730216781689 
	-0.6244472309682758127 5.214532825642481662 2.032961472706848571 
	-0.75964000205840021 5.196405554621442491 1.991905613394582719 
	-1.018027948756613288 5.15201928477538118 1.884065284445864297 
	-1.141453124002091535 5.125752783973875459 1.817196660384014839 
	-1.369227512292953808 5.069662006142960031 1.663363717794705154 
	-1.473579505445966609 5.039882401312042681 1.576387230721530308 
	-1.658072628040828222 4.98223089516230111 1.391656505550266543 
	-1.744795084245527539 4.952259327234525443 1.287353104085591449 
	-1.898130945110923395 4.895536870120354322 1.059820999817101983 
	-1.9647604305716031 4.868840139612516715 0.936589636068775544 
	-2.072227068939312744 4.824081604052318006 0.6786403564217124984 
	-2.113149583581153568 4.806034720359542156 0.5436863260591237035 
	-2.167045090697323761 4.781975164401642608 0.2711730765665094633 
	-2.180000000000007709 4.775992043544458276 0.1336076732020324287 
	-2.180000000000007709 4.775992043544458276 0 
	0.0001419588870882317001 
	
	cone -0.08000000000000781486 2.380000000000012328 0 0 1 0 -2.100000000000000089 0 0 1 I I -0 -1 2.100000000000000089 forward I I I I 
	cone 0 0 0 0 0 1 1.165734175856414367e-15 -5.25 0 1 I I -0 -1 5.25 forward I I I I 
	nullbs 
	nullbs 
	I I 
	0 
	0 
	0 
	} I I #
point $-1 -1 $-1 -2.020000000000007567 -4.845833261679559634 2.775557561562891351e-17 #
coedge $-1 -1 $-1 $655 $582 $585 $625 reversed $621 $-1 #
coedge $-1 -1 $-1 $582 $655 $590 $628 reversed $621 $-1 #
loop $-1 -1 $-1 $-1 $582 $656 #
color-adesk-attrib $-1 -1 $-1 $-1 $583 256 #
straight-curve $-1 -1 $-1 15 10 0 0 0 -1 I I #
coedge $-1 -1 $-1 $585 $584 $657 $658 forward $586 $-1 #
edge $659 -1 $-1 $660 -15 $588 15 $619 $661 forward @7 unknown #
point $-1 -1 $-1 15 10 -10 #
coedge $-1 -1 $-1 $591 $590 $662 $663 forward $592 $-1 #
edge $664 -1 $-1 $594 -15 $665 15 $620 $666 forward @7 unknown #
point $-1 -1 $-1 15 10 10 #
coedge $-1 -1 $-1 $662 $657 $596 $631 reversed $648 $-1 #
edge $667 -1 $-1 $633 -10 $636 10 $630 $668 forward @7 unknown #
color-adesk-attrib $-1 -1 $-1 $-1 $597 256 #
vertex $-1 -1 $-1 $663 $669 #
straight-curve $-1 -1 $-1 0 -10 10 1 0 0 I I #
color-adesk-attrib $-1 -1 $-1 $-1 $598 256 #
vertex $-1 -1 $-1 $658 $670 #
straight-curve $-1 -1 $-1 0 -10 -10 -1 0 0 I I #
color-adesk-attrib $-1 -1 $-1 $-1 $599 256 #
face $671 -1 $-1 $656 $609 $3 $-1 $672 reversed single #
loop $-1 -1 $-1 $561 $607 $599 #
plane-surface $-1 -1 $-1 0 -10 0 0 1 -0 -0 0 1 forward_v I I I I #
coedge $-1 -1 $-1 $642 $642 $613 $650 forward $603 $-1 #
coedge $-1 -1 $-1 $643 $643 $606 $644 forward $673 $-1 #
edge $674 -1 $-1 $675 -3.141592653589793116 $675 3.141592653589793116 $643 $676 reversed @7 unknown #
color-adesk-attrib $-1 -1 $-1 $-1 $608 256 #
vertex $-1 -1 $-1 $608 $677 #
ellipse-curve $-1 -1 $-1 0.0799999999999927297 -10 0 -0 -1 0 -2.100000000000000089 0 0 1 I I #
loop $-1 -1 $-1 $-1 $678 $639 #
point $-1 -1 $-1 -15 2.057999999999998941 -0.3780000000000003912 #
edge $679 -1 $-1 $680 -3.141592653589793116 $680 3.141592653589793116 $642 $681 forward @7 unknown #
color-adesk-attrib $-1 -1 $-1 $-1 $614 256 #
vertex $-1 -1 $-1 $614 $682 #
ellipse-curve $-1 -1 $-1 0 0 10 -0 -0 -1 1.165734175856414367e-15 -5.25 0 1 I I #
point $-1 -1 $-1 -2.180000000000007709 4.775992043544457388 -2.775557561562891351e-17 #
coedge $-1 -1 $-1 $620 $619 $678 $683 reversed $621 $-1 #
face $684 -1 $-1 $492 $673 $3 $-1 $685 reversed single #
coedge $-1 -1 $-1 $630 $678 $624 $658 reversed $648 $-1 #
edge $686 -1 $-1 $636 -10 $660 10 $657 $687 forward @7 unknown #
color-adesk-attrib $-1 -1 $-1 $-1 $625 256 #
vertex $-1 -1 $-1 $625 $688 #
straight-curve $-1 -1 $-1 0 10 -10 1 0 0 I I #
coedge $-1 -1 $-1 $678 $630 $627 $663 reversed $648 $-1 #
edge $689 -1 $-1 $665 -10 $633 10 $662 $690 forward @7 unknown #
color-adesk-attrib $-1 -1 $-1 $-1 $628 256 #
vertex $-1 -1 $-1 $628 $691 #
straight-curve $-1 -1 $-1 0 10 10 -1 0 0 I I #
color-adesk-attrib $-1 -1 $-1 $-1 $631 256 #
straight-curve $-1 -1 $-1 -15 -10 0 0 0 -1 I I #
point $-1 -1 $-1 -15 -10 10 #
point $-1 -1 $-1 -15 -10 -10 #
color-adesk-attrib $-1 -1 $-1 $-1 $639 256 #
plane-surface $-1 -1 $-1 -15 0 0 1 0 0 0 0 -1 forward_v I I I I #
loop $-1 -1 $-1 $621 $643 $656 #
color-adesk-attrib $-1 -1 $-1 $-1 $644 256 #
vertex $-1 -1 $-1 $644 $692 #
ellipse-curve $-1 -1 $-1 -0.08000000000000781486 10 0 -0 1 -0 -2.100000000000000089 0 0 1 I I #
point $-1 -1 $-1 2.17999999999999261 -10 2.571758278209441957e-16 #
coedge $-1 -1 $-1 $657 $662 $655 $683 forward $648 $-1 #
color-adesk-attrib $-1 -1 $-1 $-1 $650 256 #
vertex $-1 -1 $-1 $650 $693 #
ellipse-curve $-1 -1 $-1 0 0 -10 0 0 1 1.165734175856414367e-15 -5.25 0 1 I I #
point $-1 -1 $-1 -5.227946063040539522e-16 5.25 10 #
edge $694 -1 $-1 $665 -10 $660 10 $655 $695 forward @7 unknown #
color-adesk-attrib $-1 -1 $-1 $-1 $656 256 #
plane-surface $-1 -1 $-1 0 10 0 0 -1 0 0 0 -1 forward_v I I I I #
color-adesk-attrib $-1 -1 $-1 $-1 $658 256 #
straight-curve $-1 -1 $-1 -15 0 -10 0 1 0 I I #
point $-1 -1 $-1 -15 10 -10 #
color-adesk-attrib $-1 -1 $-1 $-1 $663 256 #
straight-curve $-1 -1 $-1 -15 0 10 0 -1 0 I I #
point $-1 -1 $-1 -15 10 10 #
point $-1 -1 $-1 2.019999999999992468 10 -2.571758278209441957e-16 #
point $-1 -1 $-1 -1.808673745408774684e-15 5.25 -10 #
color-adesk-attrib $-1 -1 $-1 $-1 $683 256 #
straight-curve $-1 -1 $-1 -15 10 0 0 0 -1 I I #
